<svg width="120" height="96" viewBox="0 0 120 96" fill="none" xmlns="http://www.w3.org/2000/svg">
<path d="M110.099 48.0867C110.096 47.7654 109.857 47.3774 109.611 47.1409C106.987 44.6402 104.32 42.1819 101.699 39.6751C98.8809 36.9773 96.0658 34.2735 93.2538 31.5697C93.2538 25.8922 93.2538 20.2815 93.2538 14.6556C89.7062 14.6556 86.2676 14.6556 82.7291 14.6556C82.7291 14.9496 82.7291 15.1891 82.7291 15.4316C82.7291 17.4413 82.7503 19.4509 82.7352 21.4606C75.3979 14.4161 68.0545 7.37767 60.7233 0.327109C60.2874 -0.0942271 60.015 -0.121505 59.5791 0.32105C58.4834 1.43956 57.3573 2.53382 56.2101 3.6008C50.1441 9.23883 44.063 14.8587 38 20.4967C34.2799 23.9553 30.584 27.4442 26.8639 30.9028C21.3579 36.0255 15.864 41.1604 10.3096 46.2285C9.23806 47.2076 8.50857 48.1655 8.84153 49.669C8.86575 49.775 8.84456 49.8933 8.84456 50.0054C8.84456 52.5334 8.84456 55.0614 8.84456 57.8016C25.9891 41.8666 43.049 26.0074 60.1875 10.0785C76.7933 25.962 93.39 41.8363 110.071 57.7926C110.093 57.5622 110.108 57.4591 110.108 57.3591C110.12 54.2703 110.135 51.1785 110.099 48.0867Z" fill="#F0893F"/>
<path d="M120 95.6763L101.53 87.2011C101.53 77.4224 101.53 67.6468 101.539 57.8682C101.539 57.3195 101.396 56.9467 100.979 56.5466C95.2305 51.0601 89.5157 45.5373 83.7736 40.0447C76.7541 33.3306 69.7074 26.6408 62.6849 19.9297C61.8646 19.1446 61.1139 18.2838 60.3239 17.4502C60.0393 17.6715 59.8729 17.7806 59.7276 17.914C58.4532 19.0719 57.1698 20.2237 55.9106 21.3998C49.6418 27.247 43.3882 33.1094 37.1103 38.9474C30.7023 44.9068 24.2972 50.8722 17.8287 56.7679C17.1658 57.3741 16.7571 57.9652 16.5362 58.6714L16.3303 57.8106V87.1162L0 95.6733L16.3576 95.7854C19.3936 95.7854 22.4266 95.7854 25.4596 95.7854C35.3698 95.7854 45.2709 95.7854 55.169 95.7854C49.1242 71.9996 37.6309 63.6002 32.3065 60.8994C30.563 60.0143 29.4703 58.2228 29.4703 56.2647C29.4703 52.3908 33.5536 49.8689 37.0074 51.6209C50.4016 58.4168 57.4725 71.1964 61.1987 82.4027C64.9248 71.1964 71.9958 58.4168 85.39 51.6209C88.8407 49.8689 92.927 52.3908 92.927 56.2647C92.927 58.2198 91.8343 60.0143 90.0908 60.8994C84.7694 63.6002 73.2762 71.9996 67.2283 95.7854C75.6069 95.7854 83.9915 95.7854 92.3792 95.7854L92.361 95.8642L120 95.6763ZM60.2966 57.8106C54.9662 57.8106 50.6468 53.4851 50.6468 48.1471C50.6468 42.8092 54.9662 38.4837 60.2966 38.4837C65.6271 38.4837 69.9465 42.8092 69.9465 48.1471C69.9465 53.4851 65.6271 57.8106 60.2966 57.8106Z" fill="#3662D4"/>
</svg>
