<svg width="263" height="59" viewBox="0 0 263 59" fill="none" xmlns="http://www.w3.org/2000/svg">
<path d="M78.1184 56.6682V51.3926H81.8468V52.3816H79.2395V53.4969H81.7912V54.486H79.2395V55.681H81.8468V56.6701H78.1184V56.6682Z" fill="#1565D8"/>
<path d="M90.8118 56.6682V52.9736L89.3275 56.6682H88.8383L87.354 52.9736V56.6682H86.2329V51.3926H87.8043L89.0848 54.5806L90.3652 51.3926H91.944V56.6682H90.8118Z" fill="#1565D8"/>
<path d="M96.4914 56.6682V51.3926H98.956C100.101 51.3926 100.726 52.1682 100.726 53.0924C100.726 54.0091 100.094 54.7922 98.956 54.7922H97.6125V56.6664H96.4914V56.6682ZM99.5805 53.0942C99.5805 52.6507 99.2488 52.3816 98.8059 52.3816H97.6125V53.8049H98.8059C99.2469 53.8049 99.5805 53.5284 99.5805 53.0942Z" fill="#1565D8"/>
<path d="M104.675 54.0344C104.675 52.4441 105.836 51.3047 107.423 51.3047C109.018 51.3047 110.18 52.4441 110.18 54.0344C110.18 55.6247 109.018 56.764 107.423 56.764C105.835 56.7622 104.675 55.6247 104.675 54.0344ZM109.027 54.0344C109.027 53.0453 108.395 52.303 107.424 52.303C106.453 52.303 105.829 53.0471 105.829 54.0344C105.829 55.016 106.453 55.7657 107.424 55.7657C108.394 55.7657 109.027 55.0142 109.027 54.0344Z" fill="#1565D8"/>
<path d="M118.346 56.6682L117.422 53.046L116.504 56.6682H115.311L113.803 51.3926H115.059L115.984 55.206L116.986 51.3926H117.863L118.858 55.206L119.773 51.3926H121.037L119.536 56.6682H118.346Z" fill="#1565D8"/>
<path d="M125.077 56.6682V51.3926H128.805V52.3816H126.198V53.4969H128.749V54.486H126.198V55.681H128.805V56.6701H125.077V56.6682Z" fill="#1565D8"/>
<path d="M136.167 56.6682L135.133 54.794H134.312V56.6682H133.191V51.3926H135.656C136.755 51.3926 137.425 52.1126 137.425 53.0924C137.425 54.0258 136.842 54.5249 136.273 54.6585L137.457 56.6682H136.167ZM136.277 53.0942C136.277 52.6507 135.937 52.3816 135.487 52.3816H134.31V53.8049H135.487C135.937 53.8049 136.277 53.5359 136.277 53.0942Z" fill="#1565D8"/>
<path d="M141.775 56.6682V51.3926H142.896V56.6682H141.775Z" fill="#1565D8"/>
<path d="M151.079 56.6682L148.568 53.2278V56.6682H147.447V51.3926H148.599L151.04 54.7068V51.3926H152.161V56.6682H151.079Z" fill="#1565D8"/>
<path d="M156.458 54.0344C156.458 52.3661 157.722 51.3047 159.262 51.3047C160.361 51.3047 161.046 51.8577 161.441 52.483L160.509 52.9896C160.272 52.6185 159.821 52.3012 159.262 52.3012C158.306 52.3012 157.611 53.036 157.611 54.0325C157.611 55.029 158.306 55.7638 159.262 55.7638C159.727 55.7638 160.17 55.5579 160.383 55.3612V54.7284H158.993V53.7467H161.506V55.7713C160.968 56.3725 160.218 56.7678 159.262 56.7678C157.722 56.7715 156.458 55.6952 156.458 54.0344Z" fill="#1565D8"/>
<path d="M175.068 56.6682L174.744 55.7738H172.485L172.154 56.6682H170.873L172.912 51.3926H174.318L176.347 56.6682H175.068ZM173.614 52.5153L172.793 54.7847H174.437L173.614 52.5153Z" fill="#1565D8"/>
<path d="M179.823 54.0344C179.823 52.4125 181.048 51.3047 182.627 51.3047C183.789 51.3047 184.46 51.9375 184.83 52.5944L183.867 53.0694C183.646 52.6426 183.172 52.303 182.627 52.303C181.671 52.303 180.976 53.0379 180.976 54.0344C180.976 55.0309 181.671 55.7657 182.627 55.7657C183.172 55.7657 183.646 55.4335 183.867 54.9993L184.83 55.4651C184.45 56.122 183.787 56.7622 182.627 56.7622C181.046 56.7622 179.823 55.6562 179.823 54.0344Z" fill="#1565D8"/>
<path d="M190.226 56.6682V52.3816H188.687V51.3926H192.889V52.3816H191.357V56.6682H190.226Z" fill="#1565D8"/>
<path d="M197.112 56.6682V51.3926H198.234V56.6682H197.112Z" fill="#1565D8"/>
<path d="M204.262 56.6682L202.223 51.3926H203.504L204.966 55.4509L206.419 51.3926H207.699L205.67 56.6682H204.262Z" fill="#1565D8"/>
<path d="M211.694 56.6682V51.3926H215.423V52.3816H212.815V53.4969H215.367V54.486H212.815V55.681H215.423V56.6701H211.694V56.6682Z" fill="#1565D8"/>
<path d="M228.968 56.6682L228.644 55.7738H226.385L226.053 56.6682H224.773L226.811 51.3926H228.218L230.249 56.6682H228.968ZM227.516 52.5153L226.695 54.7847H228.338L227.516 52.5153Z" fill="#1565D8"/>
<path d="M233.723 54.0344C233.723 52.3661 234.987 51.3047 236.527 51.3047C237.626 51.3047 238.311 51.8577 238.706 52.483L237.774 52.9896C237.537 52.6185 237.087 52.3012 236.527 52.3012C235.571 52.3012 234.876 53.036 234.876 54.0325C234.876 55.029 235.571 55.7638 236.527 55.7638C236.992 55.7638 237.435 55.5579 237.648 55.3612V54.7284H236.258V53.7467H238.769V55.7713C238.232 56.3725 237.481 56.7678 236.525 56.7678C234.987 56.7715 233.723 55.6952 233.723 54.0344Z" fill="#1565D8"/>
<path d="M243.17 56.6682V51.3926H244.291V56.6682H243.17Z" fill="#1565D8"/>
<path d="M252.474 56.6682L249.963 53.2278V56.6682H248.842V51.3926H249.995L252.435 54.7068V51.3926H253.557V56.6682H252.474Z" fill="#1565D8"/>
<path d="M257.854 54.0344C257.854 52.3661 259.118 51.3047 260.657 51.3047C261.754 51.3047 262.442 51.8577 262.837 52.483L261.905 52.9896C261.667 52.6185 261.217 52.3012 260.657 52.3012C259.701 52.3012 259.006 53.036 259.006 54.0325C259.006 55.029 259.701 55.7638 260.657 55.7638C261.123 55.7638 261.565 55.5579 261.779 55.3612V54.7284H260.389V53.7467H262.902V55.7713C262.364 56.3725 261.614 56.7678 260.657 56.7678C259.118 56.7715 257.854 55.6952 257.854 54.0344Z" fill="#1565D8"/>
<path d="M67.4012 29.4381C67.3994 29.2414 67.253 29.0039 67.1029 28.8591C65.4963 27.3282 63.8638 25.8232 62.259 24.2886C60.5338 22.6371 58.8105 20.9818 57.089 19.3266C57.089 15.8509 57.089 12.4161 57.089 8.97197C54.9172 8.97197 52.8121 8.97197 50.6459 8.97197C50.6459 9.15197 50.6459 9.29857 50.6459 9.44702C50.6459 10.6773 50.6589 11.9076 50.6496 13.1379C46.1578 8.82537 41.6623 4.51652 37.1742 0.200252C36.9073 -0.0576847 36.7406 -0.0743837 36.4737 0.196543C35.8029 0.881283 35.1136 1.55117 34.4113 2.20437C30.6977 5.6559 26.975 9.0963 23.2633 12.5478C20.9859 14.6651 18.7233 16.801 16.4459 18.9183C13.0752 22.0544 9.71188 25.1979 6.31152 28.3006C5.65554 28.8999 5.20895 29.4863 5.41279 30.4067C5.42761 30.4717 5.41464 30.5441 5.41464 30.6127C5.41464 32.1603 5.41464 33.708 5.41464 35.3855C15.9104 25.6303 26.3542 15.9214 36.8462 6.16992C47.0121 15.8936 57.1724 25.6117 67.3846 35.3799C67.3975 35.2389 67.4068 35.1758 67.4068 35.1146C67.4142 33.2236 67.4235 31.3309 67.4012 29.4381Z" fill="#F0893F"/>
<path d="M73.4626 58.5717L62.1552 53.3833C62.1552 47.3969 62.1552 41.4124 62.1608 35.426C62.1608 35.0902 62.0737 34.8619 61.818 34.617C58.299 31.2582 54.8004 27.8772 51.2852 24.5147C46.988 20.4044 42.674 16.309 38.3749 12.2006C37.8728 11.7199 37.4132 11.1929 36.9296 10.6826C36.7554 10.8181 36.6535 10.8849 36.5645 10.9665C35.7844 11.6754 34.9987 12.3805 34.2278 13.1005C30.3901 16.6801 26.5617 20.269 22.7185 23.843C18.7956 27.4912 14.8745 31.1432 10.9145 34.7524C10.5087 35.1236 10.2585 35.4854 10.1232 35.9178L9.99724 35.3908V53.3313L0 58.5699L10.0139 58.6385C11.8725 58.6385 13.7293 58.6385 15.5861 58.6385C21.653 58.6385 27.7143 58.6385 33.7738 58.6385C30.0733 44.0771 23.0372 38.9351 19.7777 37.2817C18.7103 36.7398 18.0414 35.6431 18.0414 34.4444C18.0414 32.0728 20.5411 30.5289 22.6555 31.6015C30.8552 35.7619 35.184 43.5854 37.4651 50.4458C39.7462 43.5854 44.0749 35.7619 52.2747 31.6015C54.3872 30.5289 56.8888 32.0728 56.8888 34.4444C56.8888 35.6413 56.2199 36.7398 55.1525 37.2817C51.8948 38.9351 44.8588 44.0771 41.1564 58.6385C46.2856 58.6385 51.4186 58.6385 56.5534 58.6385L56.5423 58.6868L73.4626 58.5717ZM36.9129 35.3908C33.6497 35.3908 31.0053 32.7427 31.0053 29.4749C31.0053 26.2071 33.6497 23.5591 36.9129 23.5591C40.1761 23.5591 42.8204 26.2071 42.8204 29.4749C42.8204 32.7427 40.1761 35.3908 36.9129 35.3908Z" fill="#1565D8"/>
<path d="M75.3295 44.6754L78.652 39.923C80.2346 41.4447 82.6065 42.6471 85.4546 42.6471C86.6572 42.6471 87.795 42.3298 87.795 41.5059C87.795 39.4777 76.0263 41.5374 76.0263 33.2055C76.0263 29.6259 79.0004 26.2041 84.7894 26.2041C88.2379 26.2041 91.3381 27.1857 93.7433 29.1509L90.3263 33.6806C88.4918 32.287 86.118 31.5892 84.126 31.5892C82.8603 31.5892 82.512 32.0012 82.512 32.5393C82.512 34.536 94.2492 32.8251 94.2492 40.682C94.2492 45.3397 90.8007 48.0323 85.1377 48.0323C80.6441 48.0341 77.5754 46.7036 75.3295 44.6754Z" fill="#1565D8"/>
<path d="M95.1646 39.9882C95.1646 35.5532 98.5501 31.9736 103.485 31.9736C107.977 31.9736 111.425 35.2043 111.425 40.5913V41.7641H101.048C101.365 42.7457 102.471 43.6959 104.337 43.6959C105.191 43.6959 107.089 43.2839 107.849 42.6196L110.189 46.136C108.67 47.435 105.949 48.0363 103.672 48.0363C98.8985 48.0344 95.1646 45.0245 95.1646 39.9882ZM103.485 36.3122C101.745 36.3122 101.176 37.4534 100.985 38.1493H106.014C105.859 37.4849 105.319 36.3122 103.485 36.3122Z" fill="#1565D8"/>
<path d="M123.731 47.654V39.1959C123.731 37.6111 122.877 37.0099 121.517 37.0099C120.22 37.0099 119.556 37.6761 119.082 38.2142V47.6558H113.388V32.354H119.082V34.0965C119.968 33.0833 121.645 31.9736 124.334 31.9736C127.877 31.9736 129.428 34.128 129.428 36.7891V47.6558H123.731V47.654Z" fill="#1565D8"/>
<path d="M132.242 28.0429C132.242 26.2689 133.666 24.8438 135.437 24.8438C137.209 24.8438 138.632 26.2689 138.632 28.0429C138.632 29.8169 137.209 31.2421 135.437 31.2421C133.666 31.2421 132.242 29.8169 132.242 28.0429ZM132.591 47.6536V32.3518H138.285V47.6536H132.591Z" fill="#1565D8"/>
<path d="M140.405 39.9882C140.405 35.7109 143.568 31.9736 148.979 31.9736C154.42 31.9736 157.585 35.7128 157.585 39.9882C157.585 44.2655 154.422 48.0344 148.979 48.0344C143.568 48.0344 140.405 44.2637 140.405 39.9882ZM151.731 39.9882C151.731 38.3089 150.751 37.0099 148.979 37.0099C147.239 37.0099 146.259 38.3089 146.259 39.9882C146.259 41.6992 147.239 42.9981 148.979 42.9981C150.749 42.9981 151.731 41.6973 151.731 39.9882Z" fill="#1565D8"/>
<path d="M159.703 47.6535V32.3517H165.397V34.0311C166.346 32.9214 168.34 31.9082 170.08 31.9082V37.3564C169.795 37.2618 169.32 37.1987 168.783 37.1987C167.58 37.1987 166.031 37.516 165.397 38.275V47.6517H159.703V47.6535Z" fill="#1565D8"/>
<path d="M176.058 47.6539V32.0997H170.395V26.5234H188.079V32.0997H182.447V47.6539H176.058Z" fill="#F0893F"/>
<path d="M200.607 47.6539V39.1327C200.607 37.5479 199.753 37.0098 198.393 37.0098C197.096 37.0098 196.431 37.676 195.958 38.2141V47.6557H190.264V26.5234H195.958V34.0945C196.844 33.0813 198.521 31.9717 201.21 31.9717C204.753 31.9717 206.304 34.063 206.304 36.724V47.6539H200.607Z" fill="#F0893F"/>
<path d="M209.467 47.6535V32.3517H215.161V34.0311C216.11 32.9214 218.104 31.9082 219.844 31.9082V37.3564C219.558 37.2618 219.084 37.1987 218.547 37.1987C217.344 37.1987 215.795 37.516 215.161 38.275V47.6517H209.467V47.6535Z" fill="#F0893F"/>
<path d="M221.456 28.0429C221.456 26.2689 222.879 24.8438 224.651 24.8438C226.422 24.8438 227.845 26.2689 227.845 28.0429C227.845 29.8169 226.422 31.2421 224.651 31.2421C222.879 31.2439 221.456 29.8169 221.456 28.0429ZM221.804 47.6536V32.3518H227.499V47.6536H221.804Z" fill="#F0893F"/>
<path d="M234.522 47.6534L228.605 32.3516H234.616L237.528 41.0954L240.47 32.3516H246.482L240.565 47.6534H234.522Z" fill="#F0893F"/>
<path d="M246.543 39.9882C246.543 35.5532 249.928 31.9736 254.863 31.9736C259.355 31.9736 262.803 35.2043 262.803 40.5913V41.7641H252.426C252.743 42.7457 253.849 43.6959 255.715 43.6959C256.57 43.6959 258.467 43.2839 259.227 42.6196L261.567 46.136C260.048 47.435 257.327 48.0363 255.05 48.0363C250.277 48.0344 246.543 45.0245 246.543 39.9882ZM254.863 36.3122C253.123 36.3122 252.554 37.4534 252.363 38.1493H257.392C257.237 37.4849 256.699 36.3122 254.863 36.3122Z" fill="#F0893F"/>
</svg>
